{"title":"Star Wars Episode V - The Empire Strikes Back (1980) BRRIP","uid":6702498,"size":2095073670,"categoryP":"video","categoryS":"movies","magnet":"?xt=urn:btih:5c99a7355cd8b71f096a5861b9ce807c71eb50b0&amp;dn=Star+Wars+Episode+V+-+The+Empire+Strikes+Back+%281980%29+BRRIP&amp;tr=udp%3A%2F%2Ftracker.openbittorrent.com%3A80&amp;tr=udp%3A%2F%2Fopen.demonii.com%3A1337&amp;tr=udp%3A%2F%2Ftracker.coppersurfer.tk%3A6969&amp;tr=udp%3A%2F%2Fexodus.desync.com%3A6969","seeders":0,"leechers":0,"uploader":"kn5150","files":2,"time":1317034965,"description":"General\nFormat                           : MPEG-4\nFormat_Commercial_IfAny          : XDCAM EX 25\nFormat profile                   : Base Media\nCodec ID                         : isom\nFile size                        : 1.95 GiB\nDuration                         : 2h 7mn\nOverall bit rate mode            : Variable\nOverall bit rate                 : 2 193 Kbps\nEncoded date                     : UTC 2011-09-26 08:34:42\nTagged date                      : UTC 2011-09-26 08:34:42\n\nVideo\nID                               : 1\nFormat                           : AVC\nFormat/Info                      : Advanced Video Codec\nFormat_Commercial_IfAny          : XDCAM EX 25\nFormat profile                   : &lt;a class=&quot;__cf_email__&quot; href=&quot;/cdn-cgi/l/email-protection&quot; data-cfemail=&quot;d29abbb5ba929ee6fce2&quot;&gt;[email&amp;#160;protected]&lt;/a&gt;&lt;script data-cfhash='f9e31' type=&quot;text/javascript&quot;&gt;\n/* &lt;![CDATA[ */!function(){try{var t=&quot;currentScript&quot;in document?document.currentScript:function(){for(var t=document.getElementsByTagName(&quot;script&quot;),e=t.length;e--;)if(t[e].getAttribute(&quot;data-cfhash&quot;))return t[e]}();if(t&amp;&amp;t.previousSibling){var e,r,n,i,c=t.previousSibling,a=c.getAttribute(&quot;data-cfemail&quot;);if(a){for(e=&quot;&quot;,r=parseInt(a.substr(0,2),16),n=2;a.length-n;n+=2)i=parseInt(a.substr(n,2),16)^r,e+=String.fromCharCode(i);e=document.createTextNode(e),c.parentNode.replaceChild(e,c)}t.parentNode.removeChild(t);}}catch(u){}}()/* ]]&gt; */&lt;/script&gt;\nFormat settings, CABAC           : Yes\nFormat settings, ReFrames        : 3 frames\nCodec ID                         : avc1\nCodec ID/Info                    : Advanced Video Coding\nDuration                         : 2h 7mn\nBit rate mode                    : Variable\nBit rate                         : 2 062 Kbps\nMaximum bit rate                 : 25.0 Mbps\nWidth                            : 1 916 pixels\nHeight                           : 818 pixels\nDisplay aspect ratio             : 2.35:1\nFrame rate mode                  : Constant\nFrame rate                       : 23.976 fps\nColor space                      : YUV\nChroma subsampling               : 4:2:0\nBit depth                        : 8 bits\nScan type                        : Progressive\nBits/(Pixel*Frame)               : 0.055\nStream size                      : 1.83 GiB (94%)\nTitle                            : 00501\nWriting library                  : x264 core 114 r1924 08d04a4\nEncoding settings                : cabac=1 / ref=3 / deblock=1:0:0 / analyse=0x3:0x133 / me=umh / subme=7 / psy=1 / psy_rd=1.00:0.00 / mixed_ref=1 / me_range=16 / chroma_me=1 / trellis=1 / 8x8dct=1 / cqm=0 / deadzone=21,11 / fast_pskip=1 / chroma_qp_offset=-2 / threads=6 / sliced_threads=0 / nr=0 / decimate=1 / interlaced=0 / constrained_intra=0 / bframes=3 / b_pyramid=0 / b_adapt=1 / b_bias=0 / direct=1 / weightb=1 / open_gop=0 / weightp=2 / keyint=240 / keyint_min=24 / scenecut=40 / intra_refresh=0 / rc_lookahead=40 / rc=2pass / mbtree=1 / bitrate=2062 / ratetol=1.0 / qcomp=0.60 / qpmin=0 / qpmax=69 / qpstep=4 / cplxblur=20.0 / qblur=0.5 / vbv_maxrate=25000 / vbv_bufsize=25000 / nal_hrd=vbr / ip_ratio=1.40 / aq=1:1.00\nEncoded date                     : UTC 2011-09-26 08:34:42\nTagged date                      : UTC 2011-09-26 08:37:32\n\nAudio\nID                               : 2\nFormat                           : AAC\nFormat/Info                      : Advanced Audio Codec\nFormat profile                   : LC\nCodec ID                         : 40\nDuration                         : 2h 7mn\nBit rate mode                    : Variable\nBit rate                         : 128 Kbps\nMaximum bit rate                 : 135 Kbps\nChannel(s)                       : 2 channels\nChannel positions                : Front: L R\nSampling rate                    : 48.0 KHz\nCompression mode                 : Lossy\nStream size                      : 117 MiB (6%)\nLanguage                         : English\nEncoded date                     : UTC 2011-09-26 08:36:59\nTagged date                      : UTC 2011-09-26 08:37:32\n\nMenu\n","torrent":{"xt":"urn:btih:5c99a7355cd8b71f096a5861b9ce807c71eb50b0","amp;dn":"Star+Wars+Episode+V+-+The+Empire+Strikes+Back+%281980%29+BRRIP","amp;tr":["udp%3A%2F%2Ftracker.openbittorrent.com%3A80","udp%3A%2F%2Fopen.demonii.com%3A1337","udp%3A%2F%2Ftracker.coppersurfer.tk%3A6969","udp%3A%2F%2Fexodus.desync.com%3A6969"],"infoHash":"5c99a7355cd8b71f096a5861b9ce807c71eb50b0","infoHashBuffer":{"type":"Buffer","data":[92,153,167,53,92,216,183,31,9,106,88,97,185,206,128,124,113,235,80,176]},"announce":[],"urlList":[]}}